# Blender v3.0.0 OBJ File: ''
# www.blender.org
mtllib sphere3.mtl
o Sphere
v -0.950085 -1.705778 -2.475601
v 0.687722 -0.176397 -2.978606
v 1.993688 -1.607919 -1.701750
v 0.002896 1.922317 -2.433629
v 1.658823 2.788955 -0.095927
v 2.829876 0.780824 -1.182120
v 2.425603 0.643620 1.757436
v 2.624105 -1.292628 1.141780
v -0.383709 2.053376 2.345892
v 0.040840 -0.867747 3.049696
v -1.563754 -0.039273 2.601874
v -1.982188 -2.407853 0.527969
v 0.197918 -2.757555 1.356074
v -2.247437 1.815013 0.991915
v -3.095141 -0.602393 -0.031746
v -0.500996 3.071163 0.141533
v -2.576763 1.526264 -0.859729
v -1.733685 0.443320 -2.486118
v 1.235995 -2.841037 -0.408785
vt 0.808941 0.304551
vt 0.711477 0.479520
vt 0.614474 0.339258
vt 0.748043 0.714976
vt 0.515808 0.790915
vt 0.562705 0.570476
vt 0.402628 0.568611
vt 0.434628 0.356980
vt 0.218238 0.705755
vt 0.258729 0.417067
vt 0.161707 0.500188
vt 0.053996 0.230579
vt 0.212088 0.138056
vt 0.064768 0.695050
vt 0.017411 0.435911
vt 0.111304 0.905110
vt 0.000000 0.593869
vt 0.885159 0.883333
vt 0.941272 0.651083
vt 1.000000 0.719005
vt 0.973495 0.422316
vt 0.849553 0.556800
vt 0.957433 0.196153
vt 0.576871 0.163398
vt 0.843750 0.000000
vn -0.3190 -0.5944 -0.7381
vn 0.2574 -0.0410 -0.9654
vn 0.6525 -0.5067 -0.5635
vn 0.0181 0.6410 -0.7673
vn 0.5294 0.8482 -0.0137
vn 0.8931 0.2336 -0.3846
vn 0.7550 0.2538 0.6046
vn 0.8337 -0.4141 0.3655
vn -0.0571 0.6350 0.7704
vn 0.0482 -0.2798 0.9588
vn -0.5817 -0.0417 0.8123
vn -0.6078 -0.7779 0.1596
vn 0.0484 -0.8841 0.4647
vn -0.7492 0.5552 0.3614
vn -0.9793 -0.2025 -0.0067
vn -0.1885 0.9820 0.0085
vn -0.8029 0.5107 -0.3075
vn -0.5832 0.1264 -0.8024
vn 0.3417 -0.9263 -0.1589
usemtl None.001
s 1
f 1/1/1 2/2/2 3/3/3
f 4/4/4 5/5/5 6/6/6
f 4/4/4 6/6/6 2/2/2
f 2/2/2 6/6/6 3/3/3
f 6/6/6 7/7/7 8/8/8
f 6/6/6 5/5/5 7/7/7
f 7/7/7 5/5/5 9/9/9
f 7/7/7 10/10/10 8/8/8
f 9/9/9 11/11/11 10/10/10
f 10/10/10 11/11/11 12/12/12
f 10/10/10 12/12/12 13/13/13
f 14/14/14 15/15/15 11/11/11
f 9/9/9 16/16/16 14/14/14
f 14/14/14 17/17/17 15/15/15
f 16/18/16 17/19/17 14/20/14
f 15/21/15 18/22/18 1/1/1
f 15/21/15 1/1/1 12/23/12
f 12/23/12 1/1/1 19/24/19
f 13/25/13 12/23/12 19/24/19
f 16/18/16 4/4/4 17/19/17
f 1/1/1 3/3/3 19/24/19
f 3/3/3 6/6/6 8/8/8
f 3/3/3 8/8/8 19/24/19
f 19/24/19 8/8/8 13/13/13
f 8/8/8 10/10/10 13/13/13
f 7/7/7 9/9/9 10/10/10
f 5/5/5 16/16/16 9/9/9
f 9/9/9 14/14/14 11/11/11
f 12/12/12 11/11/11 15/15/15
f 15/21/15 17/19/17 18/22/18
f 18/22/18 17/19/17 4/4/4
f 16/18/16 5/5/5 4/4/4
f 18/22/18 4/4/4 2/2/2
f 1/1/1 18/22/18 2/2/2
